<?xml version="1.0" standalone="no"?>
 <!DOCTYPE svg PUBLIC "-//W3C//DTD SVG 1.1//EN" 
 "http://www.w3.org/Graphics/SVG/1.1/DTD/svg11.dtd"> 
<svg
  xmlns:svg="http://www.w3.org/2000/svg"
  xmlns="http://www.w3.org/2000/svg"
  xmlns:xlink="http://www.w3.org/1999/xlink"
  version="1.1"
  width="50.8000mm" height="38.1000mm" viewBox="0.0000 0.0000 50.8000 38.1000">
<title>SVG Image created as 01_netlist.svg date 2025/06/02 07:40:52 </title>
  <desc>Image generated by Eeschema-SVG </desc>
<g style="fill:#000000; fill-opacity:1.0000;stroke:#000000; stroke-opacity:1.0000;
stroke-linecap:round; stroke-linejoin:round;"
 transform="translate(0 0) scale(1 1)">
<path style="fill:none; 
stroke:#840000; stroke-width:0.1524; stroke-opacity:1; 
stroke-linecap:round; stroke-linejoin:round;fill:none"
d="M 31.7500,35.5600
33.0200,36.8300
34.2900,35.5600
Z" /> 
</g>
<g style="fill:none; 
stroke:#840000; stroke-width:0.1524; stroke-opacity:1; 
stroke-linecap:round; stroke-linejoin:round;">
<path d="M33.0200 35.5600
L33.0200 35.5600
" />
<path d="M33.0200 10.1600 A0.6350 0.6350 0.0 0 0 33.0200 8.8900" />
<path d="M33.0200 11.4300 A0.6350 0.6350 0.0 0 0 33.0200 10.1600" />
<path d="M33.0200 12.7000 A0.6350 0.6350 0.0 0 0 33.0200 11.4300" />
<path d="M33.0200 13.9700 A0.6350 0.6350 0.0 0 0 33.0200 12.7000" />
<path d="M33.0200 8.8900
L33.0200 7.6200
" />
<path d="M33.0200 13.9700
L33.0200 15.2400
" />
</g>
<g style="fill:none; 
stroke:#006464; stroke-width:0.1524; stroke-opacity:1; 
stroke-linecap:round; stroke-linejoin:round;">
<text x="35.5200" y="10.7949"
textLength="2.4408" font-size="1.6933" lengthAdjust="spacingAndGlyphs"
text-anchor="middle" opacity="0" stroke-opacity="0">L1</text>
<g class="stroked-text"><desc>L1</desc>
<path d="M35.3083 10.7394
L34.7035 10.7394
" />
<path d="M34.7035 10.7394
L34.7035 9.4694
" />
<path d="M36.3969 10.7394
L35.6712 10.7394
" />
<path d="M36.0340 10.7394
L36.0340 9.4694
" />
<path d="M36.0340 9.4694
L35.9131 9.6509
" />
<path d="M35.9131 9.6509
L35.7921 9.7718
" />
<path d="M35.7921 9.7718
L35.6712 9.8323
" />
</g><text x="39.1485" y="13.3349"
textLength="9.6979" font-size="1.6933" lengthAdjust="spacingAndGlyphs"
text-anchor="middle" opacity="0" stroke-opacity="0">{inductor}</text>
<g class="stroked-text"><desc>{inductor}</desc>
<path d="M35.0664 13.7632
L35.0059 13.7632
" />
<path d="M35.0059 13.7632
L34.8850 13.7028
" />
<path d="M34.8850 13.7028
L34.8245 13.5818
" />
<path d="M34.8245 13.5818
L34.8245 12.9770
" />
<path d="M34.8245 12.9770
L34.7640 12.8561
" />
<path d="M34.7640 12.8561
L34.6431 12.7956
" />
<path d="M34.6431 12.7956
L34.7640 12.7351
" />
<path d="M34.7640 12.7351
L34.8245 12.6142
" />
<path d="M34.8245 12.6142
L34.8245 12.0094
" />
<path d="M34.8245 12.0094
L34.8850 11.8885
" />
<path d="M34.8850 11.8885
L35.0059 11.8280
" />
<path d="M35.0059 11.8280
L35.0664 11.8280
" />
<path d="M35.5502 13.2794
L35.5502 12.4328
" />
<path d="M35.5502 12.0094
L35.4898 12.0699
" />
<path d="M35.4898 12.0699
L35.5502 12.1304
" />
<path d="M35.5502 12.1304
L35.6107 12.0699
" />
<path d="M35.6107 12.0699
L35.5502 12.0094
" />
<path d="M35.5502 12.0094
L35.5502 12.1304
" />
<path d="M36.1550 12.4328
L36.1550 13.2794
" />
<path d="M36.1550 12.5537
L36.2155 12.4932
" />
<path d="M36.2155 12.4932
L36.3365 12.4328
" />
<path d="M36.3365 12.4328
L36.5179 12.4328
" />
<path d="M36.5179 12.4328
L36.6388 12.4932
" />
<path d="M36.6388 12.4932
L36.6993 12.6142
" />
<path d="M36.6993 12.6142
L36.6993 13.2794
" />
<path d="M37.8483 13.2794
L37.8483 12.0094
" />
<path d="M37.8483 13.2190
L37.7274 13.2794
" />
<path d="M37.7274 13.2794
L37.4855 13.2794
" />
<path d="M37.4855 13.2794
L37.3645 13.2190
" />
<path d="M37.3645 13.2190
L37.3040 13.1585
" />
<path d="M37.3040 13.1585
L37.2436 13.0375
" />
<path d="M37.2436 13.0375
L37.2436 12.6747
" />
<path d="M37.2436 12.6747
L37.3040 12.5537
" />
<path d="M37.3040 12.5537
L37.3645 12.4932
" />
<path d="M37.3645 12.4932
L37.4855 12.4328
" />
<path d="M37.4855 12.4328
L37.7274 12.4328
" />
<path d="M37.7274 12.4328
L37.8483 12.4932
" />
<path d="M38.9973 12.4328
L38.9973 13.2794
" />
<path d="M38.4530 12.4328
L38.4530 13.0980
" />
<path d="M38.4530 13.0980
L38.5135 13.2190
" />
<path d="M38.5135 13.2190
L38.6345 13.2794
" />
<path d="M38.6345 13.2794
L38.8159 13.2794
" />
<path d="M38.8159 13.2794
L38.9368 13.2190
" />
<path d="M38.9368 13.2190
L38.9973 13.1585
" />
<path d="M40.1463 13.2190
L40.0254 13.2794
" />
<path d="M40.0254 13.2794
L39.7835 13.2794
" />
<path d="M39.7835 13.2794
L39.6625 13.2190
" />
<path d="M39.6625 13.2190
L39.6020 13.1585
" />
<path d="M39.6020 13.1585
L39.5416 13.0375
" />
<path d="M39.5416 13.0375
L39.5416 12.6747
" />
<path d="M39.5416 12.6747
L39.6020 12.5537
" />
<path d="M39.6020 12.5537
L39.6625 12.4932
" />
<path d="M39.6625 12.4932
L39.7835 12.4328
" />
<path d="M39.7835 12.4328
L40.0254 12.4328
" />
<path d="M40.0254 12.4328
L40.1463 12.4932
" />
<path d="M40.5092 12.4328
L40.9930 12.4328
" />
<path d="M40.6906 12.0094
L40.6906 13.0980
" />
<path d="M40.6906 13.0980
L40.7511 13.2190
" />
<path d="M40.7511 13.2190
L40.8721 13.2794
" />
<path d="M40.8721 13.2794
L40.9930 13.2794
" />
<path d="M41.5978 13.2794
L41.4768 13.2190
" />
<path d="M41.4768 13.2190
L41.4163 13.1585
" />
<path d="M41.4163 13.1585
L41.3559 13.0375
" />
<path d="M41.3559 13.0375
L41.3559 12.6747
" />
<path d="M41.3559 12.6747
L41.4163 12.5537
" />
<path d="M41.4163 12.5537
L41.4768 12.4932
" />
<path d="M41.4768 12.4932
L41.5978 12.4328
" />
<path d="M41.5978 12.4328
L41.7792 12.4328
" />
<path d="M41.7792 12.4328
L41.9001 12.4932
" />
<path d="M41.9001 12.4932
L41.9606 12.5537
" />
<path d="M41.9606 12.5537
L42.0211 12.6747
" />
<path d="M42.0211 12.6747
L42.0211 13.0375
" />
<path d="M42.0211 13.0375
L41.9606 13.1585
" />
<path d="M41.9606 13.1585
L41.9001 13.2190
" />
<path d="M41.9001 13.2190
L41.7792 13.2794
" />
<path d="M41.7792 13.2794
L41.5978 13.2794
" />
<path d="M42.5653 13.2794
L42.5653 12.4328
" />
<path d="M42.5653 12.6747
L42.6258 12.5537
" />
<path d="M42.6258 12.5537
L42.6863 12.4932
" />
<path d="M42.6863 12.4932
L42.8072 12.4328
" />
<path d="M42.8072 12.4328
L42.9282 12.4328
" />
<path d="M43.2306 13.7632
L43.2911 13.7632
" />
<path d="M43.2911 13.7632
L43.4120 13.7028
" />
<path d="M43.4120 13.7028
L43.4725 13.5818
" />
<path d="M43.4725 13.5818
L43.4725 12.9770
" />
<path d="M43.4725 12.9770
L43.5330 12.8561
" />
<path d="M43.5330 12.8561
L43.6539 12.7956
" />
<path d="M43.6539 12.7956
L43.5330 12.7351
" />
<path d="M43.5330 12.7351
L43.4725 12.6142
" />
<path d="M43.4725 12.6142
L43.4725 12.0094
" />
<path d="M43.4725 12.0094
L43.4120 11.8885
" />
<path d="M43.4120 11.8885
L43.2911 11.8280
" />
<path d="M43.2911 11.8280
L43.2306 11.8280
" />
</g><path style="fill:none; 
stroke:#840000; stroke-width:0.5080; stroke-opacity:1; 
stroke-linecap:round; stroke-linejoin:round;fill:none"
d="M 30.9880,28.4480
35.0520,28.4480
" /> 
<path style="fill:none; 
stroke:#840000; stroke-width:0.5080; stroke-opacity:1; 
stroke-linecap:round; stroke-linejoin:round;fill:none"
d="M 30.9880,29.9720
35.0520,29.9720
" /> 
</g>
<g style="fill:none; 
stroke:#840000; stroke-width:0.1524; stroke-opacity:1; 
stroke-linecap:round; stroke-linejoin:round;">
<path d="M33.0200 28.1940
L33.0200 25.4000
" />
<path d="M33.0200 30.2260
L33.0200 33.0200
" />
</g>
<g style="fill:none; 
stroke:#006464; stroke-width:0.1524; stroke-opacity:1; 
stroke-linecap:round; stroke-linejoin:round;">
<text x="36.9109" y="28.5750"
textLength="2.6827" font-size="1.6933" lengthAdjust="spacingAndGlyphs"
text-anchor="middle" opacity="0" stroke-opacity="0">C1</text>
<g class="stroked-text"><desc>C1</desc>
<path d="M36.6992 28.3986
L36.6388 28.4591
" />
<path d="M36.6388 28.4591
L36.4573 28.5195
" />
<path d="M36.4573 28.5195
L36.3364 28.5195
" />
<path d="M36.3364 28.5195
L36.1550 28.4591
" />
<path d="M36.1550 28.4591
L36.0340 28.3381
" />
<path d="M36.0340 28.3381
L35.9735 28.2171
" />
<path d="M35.9735 28.2171
L35.9131 27.9752
" />
<path d="M35.9131 27.9752
L35.9131 27.7938
" />
<path d="M35.9131 27.7938
L35.9735 27.5519
" />
<path d="M35.9735 27.5519
L36.0340 27.4310
" />
<path d="M36.0340 27.4310
L36.1550 27.3100
" />
<path d="M36.1550 27.3100
L36.3364 27.2495
" />
<path d="M36.3364 27.2495
L36.4573 27.2495
" />
<path d="M36.4573 27.2495
L36.6388 27.3100
" />
<path d="M36.6388 27.3100
L36.6992 27.3705
" />
<path d="M37.9088 28.5195
L37.1831 28.5195
" />
<path d="M37.5459 28.5195
L37.5459 27.2495
" />
<path d="M37.5459 27.2495
L37.4250 27.4310
" />
<path d="M37.4250 27.4310
L37.3040 27.5519
" />
<path d="M37.3040 27.5519
L37.1831 27.6124
" />
</g><text x="40.9628" y="31.1150"
textLength="10.7865" font-size="1.6933" lengthAdjust="spacingAndGlyphs"
text-anchor="middle" opacity="0" stroke-opacity="0">{capacitor}</text>
<g class="stroked-text"><desc>{capacitor}</desc>
<path d="M36.3364 31.5433
L36.2759 31.5433
" />
<path d="M36.2759 31.5433
L36.1550 31.4829
" />
<path d="M36.1550 31.4829
L36.0945 31.3619
" />
<path d="M36.0945 31.3619
L36.0945 30.7571
" />
<path d="M36.0945 30.7571
L36.0340 30.6362
" />
<path d="M36.0340 30.6362
L35.9131 30.5757
" />
<path d="M35.9131 30.5757
L36.0340 30.5152
" />
<path d="M36.0340 30.5152
L36.0945 30.3943
" />
<path d="M36.0945 30.3943
L36.0945 29.7895
" />
<path d="M36.0945 29.7895
L36.1550 29.6686
" />
<path d="M36.1550 29.6686
L36.2759 29.6081
" />
<path d="M36.2759 29.6081
L36.3364 29.6081
" />
<path d="M37.3645 30.9991
L37.2436 31.0595
" />
<path d="M37.2436 31.0595
L37.0017 31.0595
" />
<path d="M37.0017 31.0595
L36.8807 30.9991
" />
<path d="M36.8807 30.9991
L36.8202 30.9386
" />
<path d="M36.8202 30.9386
L36.7598 30.8176
" />
<path d="M36.7598 30.8176
L36.7598 30.4548
" />
<path d="M36.7598 30.4548
L36.8202 30.3338
" />
<path d="M36.8202 30.3338
L36.8807 30.2733
" />
<path d="M36.8807 30.2733
L37.0017 30.2129
" />
<path d="M37.0017 30.2129
L37.2436 30.2129
" />
<path d="M37.2436 30.2129
L37.3645 30.2733
" />
<path d="M38.4531 31.0595
L38.4531 30.3943
" />
<path d="M38.4531 30.3943
L38.3926 30.2733
" />
<path d="M38.3926 30.2733
L38.2717 30.2129
" />
<path d="M38.2717 30.2129
L38.0298 30.2129
" />
<path d="M38.0298 30.2129
L37.9088 30.2733
" />
<path d="M38.4531 30.9991
L38.3322 31.0595
" />
<path d="M38.3322 31.0595
L38.0298 31.0595
" />
<path d="M38.0298 31.0595
L37.9088 30.9991
" />
<path d="M37.9088 30.9991
L37.8484 30.8781
" />
<path d="M37.8484 30.8781
L37.8484 30.7571
" />
<path d="M37.8484 30.7571
L37.9088 30.6362
" />
<path d="M37.9088 30.6362
L38.0298 30.5757
" />
<path d="M38.0298 30.5757
L38.3322 30.5757
" />
<path d="M38.3322 30.5757
L38.4531 30.5152
" />
<path d="M39.0578 30.2129
L39.0578 31.4829
" />
<path d="M39.0578 30.2733
L39.1788 30.2129
" />
<path d="M39.1788 30.2129
L39.4207 30.2129
" />
<path d="M39.4207 30.2129
L39.5416 30.2733
" />
<path d="M39.5416 30.2733
L39.6021 30.3338
" />
<path d="M39.6021 30.3338
L39.6626 30.4548
" />
<path d="M39.6626 30.4548
L39.6626 30.8176
" />
<path d="M39.6626 30.8176
L39.6021 30.9386
" />
<path d="M39.6021 30.9386
L39.5416 30.9991
" />
<path d="M39.5416 30.9991
L39.4207 31.0595
" />
<path d="M39.4207 31.0595
L39.1788 31.0595
" />
<path d="M39.1788 31.0595
L39.0578 30.9991
" />
<path d="M40.7511 31.0595
L40.7511 30.3943
" />
<path d="M40.7511 30.3943
L40.6906 30.2733
" />
<path d="M40.6906 30.2733
L40.5697 30.2129
" />
<path d="M40.5697 30.2129
L40.3278 30.2129
" />
<path d="M40.3278 30.2129
L40.2068 30.2733
" />
<path d="M40.7511 30.9991
L40.6302 31.0595
" />
<path d="M40.6302 31.0595
L40.3278 31.0595
" />
<path d="M40.3278 31.0595
L40.2068 30.9991
" />
<path d="M40.2068 30.9991
L40.1464 30.8781
" />
<path d="M40.1464 30.8781
L40.1464 30.7571
" />
<path d="M40.1464 30.7571
L40.2068 30.6362
" />
<path d="M40.2068 30.6362
L40.3278 30.5757
" />
<path d="M40.3278 30.5757
L40.6302 30.5757
" />
<path d="M40.6302 30.5757
L40.7511 30.5152
" />
<path d="M41.9001 30.9991
L41.7792 31.0595
" />
<path d="M41.7792 31.0595
L41.5373 31.0595
" />
<path d="M41.5373 31.0595
L41.4163 30.9991
" />
<path d="M41.4163 30.9991
L41.3558 30.9386
" />
<path d="M41.3558 30.9386
L41.2954 30.8176
" />
<path d="M41.2954 30.8176
L41.2954 30.4548
" />
<path d="M41.2954 30.4548
L41.3558 30.3338
" />
<path d="M41.3558 30.3338
L41.4163 30.2733
" />
<path d="M41.4163 30.2733
L41.5373 30.2129
" />
<path d="M41.5373 30.2129
L41.7792 30.2129
" />
<path d="M41.7792 30.2129
L41.9001 30.2733
" />
<path d="M42.4444 31.0595
L42.4444 30.2129
" />
<path d="M42.4444 29.7895
L42.3840 29.8500
" />
<path d="M42.3840 29.8500
L42.4444 29.9105
" />
<path d="M42.4444 29.9105
L42.5049 29.8500
" />
<path d="M42.5049 29.8500
L42.4444 29.7895
" />
<path d="M42.4444 29.7895
L42.4444 29.9105
" />
<path d="M42.8678 30.2129
L43.3516 30.2129
" />
<path d="M43.0492 29.7895
L43.0492 30.8781
" />
<path d="M43.0492 30.8781
L43.1097 30.9991
" />
<path d="M43.1097 30.9991
L43.2307 31.0595
" />
<path d="M43.2307 31.0595
L43.3516 31.0595
" />
<path d="M43.9564 31.0595
L43.8354 30.9991
" />
<path d="M43.8354 30.9991
L43.7749 30.9386
" />
<path d="M43.7749 30.9386
L43.7145 30.8176
" />
<path d="M43.7145 30.8176
L43.7145 30.4548
" />
<path d="M43.7145 30.4548
L43.7749 30.3338
" />
<path d="M43.7749 30.3338
L43.8354 30.2733
" />
<path d="M43.8354 30.2733
L43.9564 30.2129
" />
<path d="M43.9564 30.2129
L44.1378 30.2129
" />
<path d="M44.1378 30.2129
L44.2587 30.2733
" />
<path d="M44.2587 30.2733
L44.3192 30.3338
" />
<path d="M44.3192 30.3338
L44.3797 30.4548
" />
<path d="M44.3797 30.4548
L44.3797 30.8176
" />
<path d="M44.3797 30.8176
L44.3192 30.9386
" />
<path d="M44.3192 30.9386
L44.2587 30.9991
" />
<path d="M44.2587 30.9991
L44.1378 31.0595
" />
<path d="M44.1378 31.0595
L43.9564 31.0595
" />
<path d="M44.9239 31.0595
L44.9239 30.2129
" />
<path d="M44.9239 30.4548
L44.9844 30.3338
" />
<path d="M44.9844 30.3338
L45.0449 30.2733
" />
<path d="M45.0449 30.2733
L45.1658 30.2129
" />
<path d="M45.1658 30.2129
L45.2868 30.2129
" />
<path d="M45.5892 31.5433
L45.6497 31.5433
" />
<path d="M45.6497 31.5433
L45.7706 31.4829
" />
<path d="M45.7706 31.4829
L45.8311 31.3619
" />
<path d="M45.8311 31.3619
L45.8311 30.7571
" />
<path d="M45.8311 30.7571
L45.8916 30.6362
" />
<path d="M45.8916 30.6362
L46.0125 30.5757
" />
<path d="M46.0125 30.5757
L45.8916 30.5152
" />
<path d="M45.8916 30.5152
L45.8311 30.3943
" />
<path d="M45.8311 30.3943
L45.8311 29.7895
" />
<path d="M45.8311 29.7895
L45.7706 29.6686
" />
<path d="M45.7706 29.6686
L45.6497 29.6081
" />
<path d="M45.6497 29.6081
L45.5892 29.6081
" />
</g><path style="fill:none; 
stroke:#840000; stroke-width:0.1524; stroke-opacity:1; 
stroke-linecap:round; stroke-linejoin:round;fill:none"
d="M 7.6200,26.6700
8.8900,27.9400
10.1600,26.6700
Z" /> 
</g>
<g style="fill:none; 
stroke:#840000; stroke-width:0.1524; stroke-opacity:1; 
stroke-linecap:round; stroke-linejoin:round;">
<path d="M8.8900 26.6700
L8.8900 26.6700
" />
</g>
<g style="fill:none; 
stroke:#840000; stroke-width:0.2540; stroke-opacity:1; 
stroke-linecap:round; stroke-linejoin:round;">
<rect x="32.004000" y="17.780000" width="2.032000" height="5.080000" rx="0.000000" />
</g>
<g style="fill:none; 
stroke:#840000; stroke-width:0.1524; stroke-opacity:1; 
stroke-linecap:round; stroke-linejoin:round;">
<path d="M33.0200 17.7800
L33.0200 16.5100
" />
<path d="M33.0200 22.8600
L33.0200 24.1300
" />
</g>
<g style="fill:none; 
stroke:#006464; stroke-width:0.1524; stroke-opacity:1; 
stroke-linecap:round; stroke-linejoin:round;">
<text x="36.9109" y="19.6850"
textLength="2.6827" font-size="1.6933" lengthAdjust="spacingAndGlyphs"
text-anchor="middle" opacity="0" stroke-opacity="0">R1</text>
<g class="stroked-text"><desc>R1</desc>
<path d="M36.6992 19.6295
L36.2759 19.0248
" />
<path d="M35.9735 19.6295
L35.9735 18.3595
" />
<path d="M35.9735 18.3595
L36.4573 18.3595
" />
<path d="M36.4573 18.3595
L36.5783 18.4200
" />
<path d="M36.5783 18.4200
L36.6388 18.4805
" />
<path d="M36.6388 18.4805
L36.6992 18.6014
" />
<path d="M36.6992 18.6014
L36.6992 18.7829
" />
<path d="M36.6992 18.7829
L36.6388 18.9038
" />
<path d="M36.6388 18.9038
L36.5783 18.9643
" />
<path d="M36.5783 18.9643
L36.4573 19.0248
" />
<path d="M36.4573 19.0248
L35.9735 19.0248
" />
<path d="M37.9088 19.6295
L37.1831 19.6295
" />
<path d="M37.5459 19.6295
L37.5459 18.3595
" />
<path d="M37.5459 18.3595
L37.4250 18.5410
" />
<path d="M37.4250 18.5410
L37.3040 18.6619
" />
<path d="M37.3040 18.6619
L37.1831 18.7224
" />
</g><text x="40.1162" y="22.2250"
textLength="9.0933" font-size="1.6933" lengthAdjust="spacingAndGlyphs"
text-anchor="middle" opacity="0" stroke-opacity="0">{resistor}</text>
<g class="stroked-text"><desc>{resistor}</desc>
<path d="M36.3364 22.6533
L36.2759 22.6533
" />
<path d="M36.2759 22.6533
L36.1550 22.5929
" />
<path d="M36.1550 22.5929
L36.0945 22.4719
" />
<path d="M36.0945 22.4719
L36.0945 21.8671
" />
<path d="M36.0945 21.8671
L36.0340 21.7462
" />
<path d="M36.0340 21.7462
L35.9131 21.6857
" />
<path d="M35.9131 21.6857
L36.0340 21.6252
" />
<path d="M36.0340 21.6252
L36.0945 21.5043
" />
<path d="M36.0945 21.5043
L36.0945 20.8995
" />
<path d="M36.0945 20.8995
L36.1550 20.7786
" />
<path d="M36.1550 20.7786
L36.2759 20.7181
" />
<path d="M36.2759 20.7181
L36.3364 20.7181
" />
<path d="M36.8202 22.1695
L36.8202 21.3229
" />
<path d="M36.8202 21.5648
L36.8807 21.4438
" />
<path d="M36.8807 21.4438
L36.9412 21.3833
" />
<path d="M36.9412 21.3833
L37.0621 21.3229
" />
<path d="M37.0621 21.3229
L37.1831 21.3229
" />
<path d="M38.0902 22.1091
L37.9693 22.1695
" />
<path d="M37.9693 22.1695
L37.7274 22.1695
" />
<path d="M37.7274 22.1695
L37.6064 22.1091
" />
<path d="M37.6064 22.1091
L37.5460 21.9881
" />
<path d="M37.5460 21.9881
L37.5460 21.5043
" />
<path d="M37.5460 21.5043
L37.6064 21.3833
" />
<path d="M37.6064 21.3833
L37.7274 21.3229
" />
<path d="M37.7274 21.3229
L37.9693 21.3229
" />
<path d="M37.9693 21.3229
L38.0902 21.3833
" />
<path d="M38.0902 21.3833
L38.1507 21.5043
" />
<path d="M38.1507 21.5043
L38.1507 21.6252
" />
<path d="M38.1507 21.6252
L37.5460 21.7462
" />
<path d="M38.6346 22.1091
L38.7555 22.1695
" />
<path d="M38.7555 22.1695
L38.9974 22.1695
" />
<path d="M38.9974 22.1695
L39.1184 22.1091
" />
<path d="M39.1184 22.1091
L39.1788 21.9881
" />
<path d="M39.1788 21.9881
L39.1788 21.9276
" />
<path d="M39.1788 21.9276
L39.1184 21.8067
" />
<path d="M39.1184 21.8067
L38.9974 21.7462
" />
<path d="M38.9974 21.7462
L38.8160 21.7462
" />
<path d="M38.8160 21.7462
L38.6950 21.6857
" />
<path d="M38.6950 21.6857
L38.6346 21.5648
" />
<path d="M38.6346 21.5648
L38.6346 21.5043
" />
<path d="M38.6346 21.5043
L38.6950 21.3833
" />
<path d="M38.6950 21.3833
L38.8160 21.3229
" />
<path d="M38.8160 21.3229
L38.9974 21.3229
" />
<path d="M38.9974 21.3229
L39.1184 21.3833
" />
<path d="M39.7231 22.1695
L39.7231 21.3229
" />
<path d="M39.7231 20.8995
L39.6627 20.9600
" />
<path d="M39.6627 20.9600
L39.7231 21.0205
" />
<path d="M39.7231 21.0205
L39.7836 20.9600
" />
<path d="M39.7836 20.9600
L39.7231 20.8995
" />
<path d="M39.7231 20.8995
L39.7231 21.0205
" />
<path d="M40.2675 22.1091
L40.3884 22.1695
" />
<path d="M40.3884 22.1695
L40.6303 22.1695
" />
<path d="M40.6303 22.1695
L40.7513 22.1091
" />
<path d="M40.7513 22.1091
L40.8117 21.9881
" />
<path d="M40.8117 21.9881
L40.8117 21.9276
" />
<path d="M40.8117 21.9276
L40.7513 21.8067
" />
<path d="M40.7513 21.8067
L40.6303 21.7462
" />
<path d="M40.6303 21.7462
L40.4489 21.7462
" />
<path d="M40.4489 21.7462
L40.3279 21.6857
" />
<path d="M40.3279 21.6857
L40.2675 21.5648
" />
<path d="M40.2675 21.5648
L40.2675 21.5043
" />
<path d="M40.2675 21.5043
L40.3279 21.3833
" />
<path d="M40.3279 21.3833
L40.4489 21.3229
" />
<path d="M40.4489 21.3229
L40.6303 21.3229
" />
<path d="M40.6303 21.3229
L40.7513 21.3833
" />
<path d="M41.1746 21.3229
L41.6584 21.3229
" />
<path d="M41.3560 20.8995
L41.3560 21.9881
" />
<path d="M41.3560 21.9881
L41.4165 22.1091
" />
<path d="M41.4165 22.1091
L41.5375 22.1695
" />
<path d="M41.5375 22.1695
L41.6584 22.1695
" />
<path d="M42.2632 22.1695
L42.1422 22.1091
" />
<path d="M42.1422 22.1091
L42.0817 22.0486
" />
<path d="M42.0817 22.0486
L42.0213 21.9276
" />
<path d="M42.0213 21.9276
L42.0213 21.5648
" />
<path d="M42.0213 21.5648
L42.0817 21.4438
" />
<path d="M42.0817 21.4438
L42.1422 21.3833
" />
<path d="M42.1422 21.3833
L42.2632 21.3229
" />
<path d="M42.2632 21.3229
L42.4446 21.3229
" />
<path d="M42.4446 21.3229
L42.5655 21.3833
" />
<path d="M42.5655 21.3833
L42.6260 21.4438
" />
<path d="M42.6260 21.4438
L42.6865 21.5648
" />
<path d="M42.6865 21.5648
L42.6865 21.9276
" />
<path d="M42.6865 21.9276
L42.6260 22.0486
" />
<path d="M42.6260 22.0486
L42.5655 22.1091
" />
<path d="M42.5655 22.1091
L42.4446 22.1695
" />
<path d="M42.4446 22.1695
L42.2632 22.1695
" />
<path d="M43.2307 22.1695
L43.2307 21.3229
" />
<path d="M43.2307 21.5648
L43.2912 21.4438
" />
<path d="M43.2912 21.4438
L43.3517 21.3833
" />
<path d="M43.3517 21.3833
L43.4726 21.3229
" />
<path d="M43.4726 21.3229
L43.5936 21.3229
" />
<path d="M43.8960 22.6533
L43.9565 22.6533
" />
<path d="M43.9565 22.6533
L44.0774 22.5929
" />
<path d="M44.0774 22.5929
L44.1379 22.4719
" />
<path d="M44.1379 22.4719
L44.1379 21.8671
" />
<path d="M44.1379 21.8671
L44.1984 21.7462
" />
<path d="M44.1984 21.7462
L44.3193 21.6857
" />
<path d="M44.3193 21.6857
L44.1984 21.6252
" />
<path d="M44.1984 21.6252
L44.1379 21.5043
" />
<path d="M44.1379 21.5043
L44.1379 20.8995
" />
<path d="M44.1379 20.8995
L44.0774 20.7786
" />
<path d="M44.0774 20.7786
L43.9565 20.7181
" />
<path d="M43.9565 20.7181
L43.8960 20.7181
" />
</g></g>
<g style="fill:#FFFFC2; fill-opacity:1.0000; stroke:none;">
<circle cx="8.8900" cy="17.7800" r="2.5400" /> 
</g>
<g style="fill:none; 
stroke:#840000; stroke-width:0.1524; stroke-opacity:1; 
stroke-linecap:round; stroke-linejoin:round;">
<path d="M8.8900 17.7800 A0.6350 0.6350 0.0 0 0 7.6200 17.7800" />
<path d="M8.8900 17.7799 A0.6350 0.6350 0.0 0 0 10.1600 17.7799" />
</g>
<g style="fill:none; 
stroke:#840000; stroke-width:0.2540; stroke-opacity:1; 
stroke-linecap:round; stroke-linejoin:round;">
<circle cx="8.8900" cy="17.7800" r="2.5400" /> 
</g>
<g style="fill:none; 
stroke:#840000; stroke-width:0.1524; stroke-opacity:1; 
stroke-linecap:round; stroke-linejoin:round;">
<text x="8.8900" y="16.5100"
textLength="1.7756" font-size="1.6933" lengthAdjust="spacingAndGlyphs"
text-anchor="middle" opacity="0" stroke-opacity="0">+</text>
<g class="stroked-text"><desc>+</desc>
<path d="M8.4061 15.9707
L9.3738 15.9707
" />
<path d="M8.8899 16.4545
L8.8899 15.4869
" />
</g><path d="M8.8900 15.2400
L8.8900 12.7000
" />
<path d="M8.8900 20.3200
L8.8900 22.8600
" />
</g>
<g style="fill:none; 
stroke:#006464; stroke-width:0.1524; stroke-opacity:1; 
stroke-linecap:round; stroke-linejoin:round;">
<text x="13.9602" y="15.7451"
textLength="2.5013" font-size="1.6933" lengthAdjust="spacingAndGlyphs"
text-anchor="middle" opacity="0" stroke-opacity="0">V1</text>
<g class="stroked-text"><desc>V1</desc>
<path d="M12.9321 14.4196
L13.3554 15.6896
" />
<path d="M13.3554 15.6896
L13.7788 14.4196
" />
<path d="M14.8674 15.6896
L14.1417 15.6896
" />
<path d="M14.5045 15.6896
L14.5045 14.4196
" />
<path d="M14.5045 14.4196
L14.3836 14.6011
" />
<path d="M14.3836 14.6011
L14.2626 14.7220
" />
<path d="M14.2626 14.7220
L14.1417 14.7825
" />
</g><text x="14.9279" y="18.2851"
textLength="4.4366" font-size="1.6933" lengthAdjust="spacingAndGlyphs"
text-anchor="middle" opacity="0" stroke-opacity="0">VSIN</text>
<g class="stroked-text"><desc>VSIN</desc>
<path d="M12.9321 16.9596
L13.3554 18.2296
" />
<path d="M13.3554 18.2296
L13.7788 16.9596
" />
<path d="M14.1417 18.1692
L14.3231 18.2296
" />
<path d="M14.3231 18.2296
L14.6255 18.2296
" />
<path d="M14.6255 18.2296
L14.7464 18.1692
" />
<path d="M14.7464 18.1692
L14.8069 18.1087
" />
<path d="M14.8069 18.1087
L14.8674 17.9877
" />
<path d="M14.8674 17.9877
L14.8674 17.8668
" />
<path d="M14.8674 17.8668
L14.8069 17.7458
" />
<path d="M14.8069 17.7458
L14.7464 17.6853
" />
<path d="M14.7464 17.6853
L14.6255 17.6249
" />
<path d="M14.6255 17.6249
L14.3836 17.5644
" />
<path d="M14.3836 17.5644
L14.2626 17.5039
" />
<path d="M14.2626 17.5039
L14.2021 17.4434
" />
<path d="M14.2021 17.4434
L14.1417 17.3225
" />
<path d="M14.1417 17.3225
L14.1417 17.2015
" />
<path d="M14.1417 17.2015
L14.2021 17.0806
" />
<path d="M14.2021 17.0806
L14.2626 17.0201
" />
<path d="M14.2626 17.0201
L14.3836 16.9596
" />
<path d="M14.3836 16.9596
L14.6859 16.9596
" />
<path d="M14.6859 16.9596
L14.8674 17.0201
" />
<path d="M15.4116 18.2296
L15.4116 16.9596
" />
<path d="M16.0164 18.2296
L16.0164 16.9596
" />
<path d="M16.0164 16.9596
L16.7421 18.2296
" />
<path d="M16.7421 18.2296
L16.7421 16.9596
" />
</g></g>
<g style="fill:none; 
stroke:#840084; stroke-width:0.1524; stroke-opacity:1; 
stroke-linecap:round; stroke-linejoin:round;">
<text x="18.3145" y="20.8251"
textLength="11.2098" font-size="1.6933" lengthAdjust="spacingAndGlyphs"
text-anchor="middle" opacity="0" stroke-opacity="0">dc=0 ac=1</text>
<g class="stroked-text"><desc>dc=0 ac=1</desc>
<path d="M13.6578 20.7696
L13.6578 19.4996
" />
<path d="M13.6578 20.7092
L13.5369 20.7696
" />
<path d="M13.5369 20.7696
L13.2950 20.7696
" />
<path d="M13.2950 20.7696
L13.1740 20.7092
" />
<path d="M13.1740 20.7092
L13.1135 20.6487
" />
<path d="M13.1135 20.6487
L13.0531 20.5277
" />
<path d="M13.0531 20.5277
L13.0531 20.1649
" />
<path d="M13.0531 20.1649
L13.1135 20.0439
" />
<path d="M13.1135 20.0439
L13.1740 19.9834
" />
<path d="M13.1740 19.9834
L13.2950 19.9230
" />
<path d="M13.2950 19.9230
L13.5369 19.9230
" />
<path d="M13.5369 19.9230
L13.6578 19.9834
" />
<path d="M14.8068 20.7092
L14.6859 20.7696
" />
<path d="M14.6859 20.7696
L14.4440 20.7696
" />
<path d="M14.4440 20.7696
L14.3230 20.7092
" />
<path d="M14.3230 20.7092
L14.2625 20.6487
" />
<path d="M14.2625 20.6487
L14.2021 20.5277
" />
<path d="M14.2021 20.5277
L14.2021 20.1649
" />
<path d="M14.2021 20.1649
L14.2625 20.0439
" />
<path d="M14.2625 20.0439
L14.3230 19.9834
" />
<path d="M14.3230 19.9834
L14.4440 19.9230
" />
<path d="M14.4440 19.9230
L14.6859 19.9230
" />
<path d="M14.6859 19.9230
L14.8068 19.9834
" />
<path d="M15.3511 20.1044
L16.3188 20.1044
" />
<path d="M16.3188 20.4672
L15.3511 20.4672
" />
<path d="M17.1654 19.4996
L17.2864 19.4996
" />
<path d="M17.2864 19.4996
L17.4073 19.5601
" />
<path d="M17.4073 19.5601
L17.4678 19.6206
" />
<path d="M17.4678 19.6206
L17.5283 19.7415
" />
<path d="M17.5283 19.7415
L17.5888 19.9834
" />
<path d="M17.5888 19.9834
L17.5888 20.2858
" />
<path d="M17.5888 20.2858
L17.5283 20.5277
" />
<path d="M17.5283 20.5277
L17.4678 20.6487
" />
<path d="M17.4678 20.6487
L17.4073 20.7092
" />
<path d="M17.4073 20.7092
L17.2864 20.7696
" />
<path d="M17.2864 20.7696
L17.1654 20.7696
" />
<path d="M17.1654 20.7696
L17.0445 20.7092
" />
<path d="M17.0445 20.7092
L16.9840 20.6487
" />
<path d="M16.9840 20.6487
L16.9235 20.5277
" />
<path d="M16.9235 20.5277
L16.8631 20.2858
" />
<path d="M16.8631 20.2858
L16.8631 19.9834
" />
<path d="M16.8631 19.9834
L16.9235 19.7415
" />
<path d="M16.9235 19.7415
L16.9840 19.6206
" />
<path d="M16.9840 19.6206
L17.0445 19.5601
" />
<path d="M17.0445 19.5601
L17.1654 19.4996
" />
<path d="M19.6449 20.7696
L19.6449 20.1044
" />
<path d="M19.6449 20.1044
L19.5844 19.9834
" />
<path d="M19.5844 19.9834
L19.4635 19.9230
" />
<path d="M19.4635 19.9230
L19.2216 19.9230
" />
<path d="M19.2216 19.9230
L19.1006 19.9834
" />
<path d="M19.6449 20.7092
L19.5240 20.7696
" />
<path d="M19.5240 20.7696
L19.2216 20.7696
" />
<path d="M19.2216 20.7696
L19.1006 20.7092
" />
<path d="M19.1006 20.7092
L19.0402 20.5882
" />
<path d="M19.0402 20.5882
L19.0402 20.4672
" />
<path d="M19.0402 20.4672
L19.1006 20.3463
" />
<path d="M19.1006 20.3463
L19.2216 20.2858
" />
<path d="M19.2216 20.2858
L19.5240 20.2858
" />
<path d="M19.5240 20.2858
L19.6449 20.2253
" />
<path d="M20.7939 20.7092
L20.6730 20.7696
" />
<path d="M20.6730 20.7696
L20.4311 20.7696
" />
<path d="M20.4311 20.7696
L20.3101 20.7092
" />
<path d="M20.3101 20.7092
L20.2496 20.6487
" />
<path d="M20.2496 20.6487
L20.1892 20.5277
" />
<path d="M20.1892 20.5277
L20.1892 20.1649
" />
<path d="M20.1892 20.1649
L20.2496 20.0439
" />
<path d="M20.2496 20.0439
L20.3101 19.9834
" />
<path d="M20.3101 19.9834
L20.4311 19.9230
" />
<path d="M20.4311 19.9230
L20.6730 19.9230
" />
<path d="M20.6730 19.9230
L20.7939 19.9834
" />
<path d="M21.3382 20.1044
L22.3059 20.1044
" />
<path d="M22.3059 20.4672
L21.3382 20.4672
" />
<path d="M23.5759 20.7696
L22.8502 20.7696
" />
<path d="M23.2130 20.7696
L23.2130 19.4996
" />
<path d="M23.2130 19.4996
L23.0921 19.6811
" />
<path d="M23.0921 19.6811
L22.9711 19.8020
" />
<path d="M22.9711 19.8020
L22.8502 19.8625
" />
</g></g>
<g style="fill:none; 
stroke:#840000; stroke-width:0.2540; stroke-opacity:1; 
stroke-linecap:round; stroke-linejoin:round;">
<rect x="20.320000" y="5.334000" width="5.080000" height="2.032000" rx="0.000000" />
</g>
<g style="fill:none; 
stroke:#840000; stroke-width:0.1524; stroke-opacity:1; 
stroke-linecap:round; stroke-linejoin:round;">
<path d="M20.3200 6.3500
L19.0500 6.3500
" />
<path d="M25.4000 6.3500
L26.6700 6.3500
" />
</g>
<g style="fill:none; 
stroke:#006464; stroke-width:0.1524; stroke-opacity:1; 
stroke-linecap:round; stroke-linejoin:round;">
<text x="22.8599" y="4.4449"
textLength="2.6827" font-size="1.6933" lengthAdjust="spacingAndGlyphs"
text-anchor="middle" opacity="0" stroke-opacity="0">R2</text>
<g class="stroked-text"><desc>R2</desc>
<path d="M22.6482 4.3894
L22.2249 3.7847
" />
<path d="M21.9225 4.3894
L21.9225 3.1194
" />
<path d="M21.9225 3.1194
L22.4063 3.1194
" />
<path d="M22.4063 3.1194
L22.5273 3.1799
" />
<path d="M22.5273 3.1799
L22.5878 3.2404
" />
<path d="M22.5878 3.2404
L22.6482 3.3613
" />
<path d="M22.6482 3.3613
L22.6482 3.5428
" />
<path d="M22.6482 3.5428
L22.5878 3.6637
" />
<path d="M22.5878 3.6637
L22.5273 3.7242
" />
<path d="M22.5273 3.7242
L22.4063 3.7847
" />
<path d="M22.4063 3.7847
L21.9225 3.7847
" />
<path d="M23.1321 3.2404
L23.1925 3.1799
" />
<path d="M23.1925 3.1799
L23.3135 3.1194
" />
<path d="M23.3135 3.1194
L23.6159 3.1194
" />
<path d="M23.6159 3.1194
L23.7368 3.1799
" />
<path d="M23.7368 3.1799
L23.7973 3.2404
" />
<path d="M23.7973 3.2404
L23.8578 3.3613
" />
<path d="M23.8578 3.3613
L23.8578 3.4823
" />
<path d="M23.8578 3.4823
L23.7973 3.6637
" />
<path d="M23.7973 3.6637
L23.0716 4.3894
" />
<path d="M23.0716 4.3894
L23.8578 4.3894
" />
</g><text x="22.8599" y="9.5249"
textLength="5.7065" font-size="1.6933" lengthAdjust="spacingAndGlyphs"
text-anchor="middle" opacity="0" stroke-opacity="0">{rout}</text>
<g class="stroked-text"><desc>{rout}</desc>
<path d="M20.7735 9.9532
L20.7130 9.9532
" />
<path d="M20.7130 9.9532
L20.5921 9.8928
" />
<path d="M20.5921 9.8928
L20.5316 9.7718
" />
<path d="M20.5316 9.7718
L20.5316 9.1670
" />
<path d="M20.5316 9.1670
L20.4711 9.0461
" />
<path d="M20.4711 9.0461
L20.3502 8.9856
" />
<path d="M20.3502 8.9856
L20.4711 8.9251
" />
<path d="M20.4711 8.9251
L20.5316 8.8042
" />
<path d="M20.5316 8.8042
L20.5316 8.1994
" />
<path d="M20.5316 8.1994
L20.5921 8.0785
" />
<path d="M20.5921 8.0785
L20.7130 8.0180
" />
<path d="M20.7130 8.0180
L20.7735 8.0180
" />
<path d="M21.2573 9.4694
L21.2573 8.6228
" />
<path d="M21.2573 8.8647
L21.3178 8.7437
" />
<path d="M21.3178 8.7437
L21.3783 8.6832
" />
<path d="M21.3783 8.6832
L21.4992 8.6228
" />
<path d="M21.4992 8.6228
L21.6202 8.6228
" />
<path d="M22.2250 9.4694
L22.1040 9.4090
" />
<path d="M22.1040 9.4090
L22.0435 9.3485
" />
<path d="M22.0435 9.3485
L21.9831 9.2275
" />
<path d="M21.9831 9.2275
L21.9831 8.8647
" />
<path d="M21.9831 8.8647
L22.0435 8.7437
" />
<path d="M22.0435 8.7437
L22.1040 8.6832
" />
<path d="M22.1040 8.6832
L22.2250 8.6228
" />
<path d="M22.2250 8.6228
L22.4064 8.6228
" />
<path d="M22.4064 8.6228
L22.5273 8.6832
" />
<path d="M22.5273 8.6832
L22.5878 8.7437
" />
<path d="M22.5878 8.7437
L22.6483 8.8647
" />
<path d="M22.6483 8.8647
L22.6483 9.2275
" />
<path d="M22.6483 9.2275
L22.5878 9.3485
" />
<path d="M22.5878 9.3485
L22.5273 9.4090
" />
<path d="M22.5273 9.4090
L22.4064 9.4694
" />
<path d="M22.4064 9.4694
L22.2250 9.4694
" />
<path d="M23.7368 8.6228
L23.7368 9.4694
" />
<path d="M23.1925 8.6228
L23.1925 9.2880
" />
<path d="M23.1925 9.2880
L23.2530 9.4090
" />
<path d="M23.2530 9.4090
L23.3740 9.4694
" />
<path d="M23.3740 9.4694
L23.5554 9.4694
" />
<path d="M23.5554 9.4694
L23.6763 9.4090
" />
<path d="M23.6763 9.4090
L23.7368 9.3485
" />
<path d="M24.1601 8.6228
L24.6439 8.6228
" />
<path d="M24.3415 8.1994
L24.3415 9.2880
" />
<path d="M24.3415 9.2880
L24.4020 9.4090
" />
<path d="M24.4020 9.4090
L24.5230 9.4694
" />
<path d="M24.5230 9.4694
L24.6439 9.4694
" />
<path d="M24.9463 9.9532
L25.0068 9.9532
" />
<path d="M25.0068 9.9532
L25.1277 9.8928
" />
<path d="M25.1277 9.8928
L25.1882 9.7718
" />
<path d="M25.1882 9.7718
L25.1882 9.1670
" />
<path d="M25.1882 9.1670
L25.2487 9.0461
" />
<path d="M25.2487 9.0461
L25.3696 8.9856
" />
<path d="M25.3696 8.9856
L25.2487 8.9251
" />
<path d="M25.2487 8.9251
L25.1882 8.8042
" />
<path d="M25.1882 8.8042
L25.1882 8.1994
" />
<path d="M25.1882 8.1994
L25.1277 8.0785
" />
<path d="M25.1277 8.0785
L25.0068 8.0180
" />
<path d="M25.0068 8.0180
L24.9463 8.0180
" />
</g></g>
<g style="fill:none; 
stroke:#840000; stroke-width:0.1524; stroke-opacity:1; 
stroke-linecap:round; stroke-linejoin:round;">
<text x="38.5763" y="7.0758"
textLength="3.8318" font-size="1.6933" lengthAdjust="spacingAndGlyphs"
text-anchor="start" opacity="0" stroke-opacity="0">OUT</text>
<g class="stroked-text"><desc>OUT</desc>
<path d="M39.2207 5.7503
L39.4626 5.7503
" />
<path d="M39.4626 5.7503
L39.5836 5.8108
" />
<path d="M39.5836 5.8108
L39.7045 5.9318
" />
<path d="M39.7045 5.9318
L39.7650 6.1737
" />
<path d="M39.7650 6.1737
L39.7650 6.5970
" />
<path d="M39.7650 6.5970
L39.7045 6.8389
" />
<path d="M39.7045 6.8389
L39.5836 6.9599
" />
<path d="M39.5836 6.9599
L39.4626 7.0203
" />
<path d="M39.4626 7.0203
L39.2207 7.0203
" />
<path d="M39.2207 7.0203
L39.0998 6.9599
" />
<path d="M39.0998 6.9599
L38.9788 6.8389
" />
<path d="M38.9788 6.8389
L38.9184 6.5970
" />
<path d="M38.9184 6.5970
L38.9184 6.1737
" />
<path d="M38.9184 6.1737
L38.9788 5.9318
" />
<path d="M38.9788 5.9318
L39.0998 5.8108
" />
<path d="M39.0998 5.8108
L39.2207 5.7503
" />
<path d="M40.3093 5.7503
L40.3093 6.7784
" />
<path d="M40.3093 6.7784
L40.3698 6.8994
" />
<path d="M40.3698 6.8994
L40.4303 6.9599
" />
<path d="M40.4303 6.9599
L40.5512 7.0203
" />
<path d="M40.5512 7.0203
L40.7931 7.0203
" />
<path d="M40.7931 7.0203
L40.9141 6.9599
" />
<path d="M40.9141 6.9599
L40.9746 6.8994
" />
<path d="M40.9746 6.8994
L41.0350 6.7784
" />
<path d="M41.0350 6.7784
L41.0350 5.7503
" />
<path d="M41.4584 5.7503
L42.1841 5.7503
" />
<path d="M41.8213 7.0203
L41.8213 5.7503
" />
</g><path style="fill:none; 
stroke:#840000; stroke-width:0.1524; stroke-opacity:1; 
stroke-linecap:round; stroke-linejoin:round;fill:none"
d="M 38.1000,6.3500
38.1000,7.6204
43.0627,7.6204
44.1740,6.3500
43.0627,5.0796
38.1000,5.0796
Z" /> 
</g>
<g style="fill:none; 
stroke:#0F0F0F; stroke-width:0.1524; stroke-opacity:1; 
stroke-linecap:round; stroke-linejoin:round;">
<text x="33.0200" y="25.0507"
textLength="1.4732" font-size="1.6933" lengthAdjust="spacingAndGlyphs"
text-anchor="start" opacity="0" stroke-opacity="0">B</text>
<g class="stroked-text"><desc>B</desc>
<path d="M33.8459 24.2220
L34.0273 24.2825
" />
<path d="M34.0273 24.2825
L34.0878 24.3429
" />
<path d="M34.0878 24.3429
L34.1482 24.4639
" />
<path d="M34.1482 24.4639
L34.1482 24.6453
" />
<path d="M34.1482 24.6453
L34.0878 24.7663
" />
<path d="M34.0878 24.7663
L34.0273 24.8268
" />
<path d="M34.0273 24.8268
L33.9063 24.8872
" />
<path d="M33.9063 24.8872
L33.4225 24.8872
" />
<path d="M33.4225 24.8872
L33.4225 23.6172
" />
<path d="M33.4225 23.6172
L33.8459 23.6172
" />
<path d="M33.8459 23.6172
L33.9668 23.6777
" />
<path d="M33.9668 23.6777
L34.0273 23.7382
" />
<path d="M34.0273 23.7382
L34.0878 23.8591
" />
<path d="M34.0878 23.8591
L34.0878 23.9801
" />
<path d="M34.0878 23.9801
L34.0273 24.1010
" />
<path d="M34.0273 24.1010
L33.9668 24.1615
" />
<path d="M33.9668 24.1615
L33.8459 24.2220
" />
<path d="M33.8459 24.2220
L33.4225 24.2220
" />
</g></g>
<g style="fill:none; 
stroke:#0F0F0F; stroke-width:0.1524; stroke-opacity:1; 
stroke-linecap:round; stroke-linejoin:round;">
<text x="33.0200" y="16.1607"
textLength="1.2918" font-size="1.6933" lengthAdjust="spacingAndGlyphs"
text-anchor="start" opacity="0" stroke-opacity="0">A</text>
<g class="stroked-text"><desc>A</desc>
<path d="M33.3621 15.6344
L33.9668 15.6344
" />
<path d="M33.2411 15.9972
L33.6644 14.7272
" />
<path d="M33.6644 14.7272
L34.0878 15.9972
" />
</g></g>
<g style="fill:none; 
stroke:#009600; stroke-width:0.1524; stroke-opacity:1; 
stroke-linecap:round; stroke-linejoin:round;">
<path d="M8.8900 22.8600
L8.8900 26.6700
" />
<path d="M33.0200 33.0200
L33.0200 35.5600
" />
<path d="M33.0200 24.1300
L33.0200 25.4000
" />
<path d="M8.8900 6.3500
L8.8900 12.7000
" />
<path d="M19.0500 6.3500
L8.8900 6.3500
" />
<path d="M33.0200 6.3500
L38.1000 6.3500
" />
<path d="M33.0200 6.3500
L33.0200 7.6200
" />
<path d="M26.6700 6.3500
L33.0200 6.3500
" />
<path d="M33.0200 15.2400
L33.0200 16.5100
" />
</g>
<g style="fill:#009600; fill-opacity:1.0000; 
stroke:#009600; stroke-width:0.1524; stroke-opacity:1; 
stroke-linecap:round; stroke-linejoin:round;">
<circle cx="33.0200" cy="6.3500" r="0.4572" /> 
</g> 
</svg>
